HIERARCHY
ROOT joint_Root
{
	OFFSET 0.0 0.0 0.0
	CHANNELS 6 Xposition Yposition Zposition Zrotation Xrotation Yrotation 
	JOINT Hips
	{
		OFFSET -17.1583 93.1646 452.98
		CHANNELS 6 Xposition Yposition Zposition Zrotation Xrotation Yrotation 
		JOINT Spine
		{
			OFFSET 15.7357 0.0 0.0
			CHANNELS 6 Xposition Yposition Zposition Zrotation Xrotation Yrotation 
			JOINT Chest
			{
				OFFSET 8.98455 -0.406207 0.0
				CHANNELS 6 Xposition Yposition Zposition Zrotation Xrotation Yrotation 
				JOINT Neck
				{
					OFFSET 16.3773 0.0 0.0
					CHANNELS 6 Xposition Yposition Zposition Zrotation Xrotation Yrotation 
					JOINT Head
					{
						OFFSET 6.45672 0.0 0.0
						CHANNELS 6 Xposition Yposition Zposition Zrotation Xrotation Yrotation 
						End Site
						{
							OFFSET 0.0 0.0 0.0
						}
					}
				}
				JOINT Shoulder_L
				{
					OFFSET 12.9942 -0.242716 4.98039
					CHANNELS 6 Xposition Yposition Zposition Zrotation Xrotation Yrotation 
					JOINT UpperArm_L
					{
						OFFSET 5.34809 0.0 0.0
						CHANNELS 6 Xposition Yposition Zposition Zrotation Xrotation Yrotation 
						JOINT LowerArm_L
						{
							OFFSET 24.3286 1.87007e-05 0.0
							CHANNELS 6 Xposition Yposition Zposition Zrotation Xrotation Yrotation 
							JOINT Hand_L
							{
								OFFSET 22.2916 0.0 0.0
								CHANNELS 6 Xposition Yposition Zposition Zrotation Xrotation Yrotation 
								End Site
								{
									OFFSET 0.0 0.0 0.0
								}
							}
						}
					}
				}
				JOINT Shoulder_R
				{
					OFFSET 12.9945 -0.242716 -4.98039
					CHANNELS 6 Xposition Yposition Zposition Zrotation Xrotation Yrotation 
					JOINT UpperArm_R
					{
						OFFSET -5.34813 0.0 0.0
						CHANNELS 6 Xposition Yposition Zposition Zrotation Xrotation Yrotation 
						JOINT LowerArm_R
						{
							OFFSET -24.3289 0.000322201 0.0
							CHANNELS 6 Xposition Yposition Zposition Zrotation Xrotation Yrotation 
							JOINT Hand_R
							{
								OFFSET -22.2915 -0.000108084 0.0
								CHANNELS 6 Xposition Yposition Zposition Zrotation Xrotation Yrotation 
								End Site
								{
									OFFSET 0.0 0.0 0.0
								}
							}
						}
					}
				}
			}
		}
		JOINT UpperLeg_L
		{
			OFFSET -2.19248 -6.46944 0.0
			CHANNELS 6 Xposition Yposition Zposition Zrotation Xrotation Yrotation 
			JOINT LowerLeg_L
			{
				OFFSET 39.0811 0.0 -1.23785e-05
				CHANNELS 6 Xposition Yposition Zposition Zrotation Xrotation Yrotation 
				JOINT Foot_L
				{
					OFFSET 40.9854 0.0 -1.26872e-05
					CHANNELS 6 Xposition Yposition Zposition Zrotation Xrotation Yrotation 
					JOINT Toes_L
					{
						OFFSET 11.7543 0.0 0.0
						CHANNELS 6 Xposition Yposition Zposition Zrotation Xrotation Yrotation 
						End Site
						{
							OFFSET 0.0 0.0 0.0
						}
					}
				}
			}
		}
		JOINT UpperLeg_R
		{
			OFFSET -2.19251 6.46944 0.0
			CHANNELS 6 Xposition Yposition Zposition Zrotation Xrotation Yrotation 
			JOINT LowerLeg_R
			{
				OFFSET -39.0811 -0.00228153 -0.0401928
				CHANNELS 6 Xposition Yposition Zposition Zrotation Xrotation Yrotation 
				JOINT Foot_R
				{
					OFFSET -40.9854 0.0 0.0
					CHANNELS 6 Xposition Yposition Zposition Zrotation Xrotation Yrotation 
					JOINT Toes_R
					{
						OFFSET -11.7543 0.0 0.0
						CHANNELS 6 Xposition Yposition Zposition Zrotation Xrotation Yrotation 
						End Site
						{
							OFFSET 0.0 0.0 0.0
						}
					}
				}
			}
		}
	}
}
MOTION
Frames:	4
Frame Time:	0.0333333
0.000000 0.000000 0.000000 0.000000 0.000000 -0.000000 -0.607264 92.636800 4.400670 86.077600 -5.226680 1.549730 15.735700 0.000005 -0.000001 88.681600 87.531600 -94.630800 8.984550 -0.406207 -0.000000 -2.780170 0.432833 -11.888700 16.377300 -0.000001 -0.000001 -0.988194 0.672682 -6.645500 6.456720 -0.000001 -0.000000 4.742470 3.599720 -20.465500 12.994200 -0.242716 4.980390 -92.788100 9.062310 -72.819300 5.348090 -0.000007 -0.000001 -58.034300 2.362080 2.669880 24.328600 0.000019 0.000005 13.247500 27.052000 -27.367800 22.291600 -0.000001 0.000005 1.895990 4.848150 10.396700 12.994500 -0.242716 -4.980390 94.681800 -8.959970 -62.263100 -5.348130 -0.000001 -0.000004 -29.399400 -62.277600 -68.625200 -24.328900 0.000322 -0.000009 -0.247818 -1.547850 -9.059830 -22.291500 -0.000108 -0.000004 46.320400 5.488520 -6.079170 -2.192480 -6.469440 -0.000000 -172.003000 -7.844580 3.189870 39.081100 -0.000007 -0.000012 0.019628 -0.066513 16.441200 40.985400 -0.000006 -0.000013 -0.368853 9.150600 -71.644500 11.754300 -0.000000 0.000003 -0.002798 0.205921 -8.221340 -2.192510 6.469440 -0.000001 178.155000 5.060780 -175.143000 -39.081100 -0.002282 -0.040193 -0.015358 0.100442 10.544300 -40.985400 0.000008 0.000006 -9.393650 10.327500 -66.756100 -11.754300 -0.000006 -0.000006 -0.010615 0.275848 -5.365120
0.000000 0.000000 0.000000 0.000000 0.000000 -0.000000 -0.606329 92.633800 4.411070 86.107700 -5.132080 1.496930 15.735700 0.000005 -0.000001 88.650300 87.546600 -94.578900 8.984550 -0.406207 -0.000000 -2.810680 0.430529 -11.847500 16.377300 -0.000001 -0.000001 -0.923739 0.604160 -6.603940 6.456720 -0.000001 -0.000000 4.757200 3.512120 -20.344600 12.994200 -0.242716 4.980390 -92.776400 9.022850 -72.817400 5.348090 -0.000007 -0.000001 -57.782300 2.356890 2.492410 24.328600 0.000019 0.000005 13.323000 27.083200 -27.481000 22.291600 -0.000001 0.000005 1.859860 4.845380 10.450500 12.994500 -0.242716 -4.980390 94.659900 -8.932780 -62.303300 -5.348130 -0.000001 -0.000004 -29.011000 -62.065400 -68.129400 -24.328900 0.000322 -0.000009 -0.214491 -1.332390 -9.102170 -22.291500 -0.000108 -0.000004 46.326300 5.483240 -5.872950 -2.192480 -6.469440 -0.000000 -172.051000 -7.708410 3.121790 39.081100 -0.000007 -0.000012 0.019106 -0.064792 16.430100 40.985400 -0.000006 -0.000013 -0.366240 9.144030 -71.607300 11.754300 -0.000000 0.000003 -0.002668 0.204413 -8.282700 -2.192510 6.469440 -0.000001 178.137000 5.102350 -175.192000 -39.081100 -0.002282 -0.040193 -0.015146 0.099118 10.563200 -40.985400 0.000008 0.000006 -9.345200 10.256000 -66.788600 -11.754300 -0.000006 -0.000006 -0.010660 0.276172 -5.351860
0.000000 0.000000 0.000000 0.000000 0.000000 -0.000000 -0.594670 92.642400 4.411200 86.139800 -4.982370 1.480640 15.735700 0.000005 -0.000001 88.530500 87.543000 -94.439600 8.984550 -0.406207 -0.000000 -2.804640 0.417992 -11.808900 16.377300 -0.000001 -0.000001 -0.835318 0.539032 -6.579870 6.456720 -0.000001 -0.000000 4.734180 3.427330 -20.243300 12.994200 -0.242716 4.980390 -92.766400 8.981950 -72.802900 5.348090 -0.000007 -0.000001 -57.596600 2.481440 2.346660 24.328600 0.000019 0.000005 13.405500 27.002200 -27.696600 22.291600 -0.000001 0.000005 1.918560 4.844680 10.463900 12.994500 -0.242716 -4.980390 94.626900 -8.884840 -62.345500 -5.348130 -0.000001 -0.000004 -28.673000 -61.917300 -67.660900 -24.328900 0.000322 -0.000009 -0.245556 -1.519030 -9.145460 -22.291500 -0.000108 -0.000004 46.272700 5.489020 -6.097520 -2.192480 -6.469440 -0.000000 -172.085000 -7.681880 3.101240 39.081100 -0.000007 -0.000012 0.020016 -0.068107 16.378200 40.985400 -0.000006 -0.000013 -0.355290 9.217690 -71.641000 11.754300 -0.000000 0.000003 -0.002987 0.208086 -8.133250 -2.192510 6.469440 -0.000001 178.113000 5.192070 -175.188000 -39.081100 -0.002282 -0.040193 -0.015101 0.099012 10.549400 -40.985400 0.000008 0.000006 -9.283560 10.198400 -66.838500 -11.754300 -0.000006 -0.000006 -0.010837 0.277458 -5.299240
0.000000 0.000000 0.000000 0.000000 0.000000 -0.000000 -0.594238 92.647900 4.401690 86.164200 -4.830980 1.387680 15.735700 0.000005 -0.000001 88.372000 87.561600 -94.242300 8.984550 -0.406207 -0.000000 -2.843400 0.403901 -11.731600 16.377300 -0.000001 -0.000001 -0.765225 0.494473 -6.487420 6.456720 -0.000001 -0.000000 4.775710 3.413900 -20.333900 12.994200 -0.242716 4.980390 -92.756900 8.956240 -72.812400 5.348090 -0.000007 -0.000001 -57.552800 2.403480 2.303470 24.328600 0.000019 0.000005 13.513200 26.842500 -28.023000 22.291600 -0.000001 0.000005 1.898840 4.843420 10.488200 12.994500 -0.242716 -4.980390 94.623800 -8.857890 -62.290400 -5.348130 -0.000001 -0.000004 -28.738800 -61.776400 -67.674600 -24.328900 0.000322 -0.000009 -0.241696 -1.514440 -9.030660 -22.291500 -0.000108 -0.000004 46.163500 5.488200 -6.065950 -2.192480 -6.469440 -0.000000 -172.112000 -7.627110 2.990890 39.081100 -0.000007 -0.000012 0.019806 -0.067584 16.333800 40.985400 -0.000006 -0.000013 -0.342199 9.322080 -71.588500 11.754300 -0.000000 0.000003 -0.002884 0.206917 -8.180800 -2.192510 6.469440 -0.000001 178.106000 5.258430 -175.267000 -39.081100 -0.002282 -0.040193 -0.014695 0.097105 10.520400 -40.985400 0.000008 0.000006 -9.332140 10.111400 -66.798500 -11.754300 -0.000006 -0.000006 -0.010771 0.276981 -5.318780
